<?xml version="1.0" standalone="no"?><!DOCTYPE svg PUBLIC "-//W3C//DTD SVG 1.1//EN" "http://www.w3.org/Graphics/SVG/1.1/DTD/svg11.dtd"><svg t="1536034973634" class="icon" style="" viewBox="0 0 1024 1024" version="1.1" xmlns="http://www.w3.org/2000/svg" p-id="3586" xmlns:xlink="http://www.w3.org/1999/xlink" width="200" height="200"><defs><style type="text/css"></style></defs><path d="M811.348458 644.014993h54.677977v93.599001c0 9.427237 7.676465 17.103702 17.103702 17.103702s17.036365-7.676465 17.036365-17.103702V644.014993h47.405537c9.427237 0 17.103702-7.676465 17.103702-17.103702V363.015979c0-9.494575-7.676465-17.103702-17.103702-17.103702h-47.405537V243.761426c0-9.427237-7.609127-17.036365-17.036365-17.036365s-17.103702 7.609127-17.103702 17.036365v102.150851h-54.677977c-9.427237 0-17.103702 7.609127-17.103702 17.103702v263.895312c0 9.427237 7.676465 17.103702 17.103702 17.103702z m17.036365-263.962649h102.150851v229.822582h-102.150851V380.052344zM571.694614 507.791412h59.054909v93.599c0 9.427237 7.676465 17.103702 17.103702 17.103703s17.036365-7.676465 17.036365-17.103703V507.791412h51.580457c9.427237 0 17.036365-7.676465 17.036365-17.103702V192.719669c0-9.427237-7.609127-17.103702-17.036365-17.103703h-51.580457V73.465115c0-9.427237-7.609127-17.036365-17.036365-17.036365s-17.103702 7.609127-17.103702 17.036365v102.150851h-59.054909c-9.427237 0-17.103702 7.676465-17.103702 17.103703v297.968041c0 9.427237 7.676465 17.103702 17.103702 17.103702z m17.036365-298.035379h110.635365v263.895312H588.730979V209.756033zM347.865062 609.942263h54.475965v93.599001c0 9.427237 7.609127 17.103702 17.036365 17.103702s17.103702-7.676465 17.103702-17.103702V609.942263h47.607549c9.427237 0 17.103702-7.609127 17.103703-17.036364V294.87052c0-9.427237-7.676465-17.103702-17.103703-17.103702h-47.607549V175.683304c0-9.427237-7.676465-17.103702-17.103702-17.103703s-17.036365 7.676465-17.036365 17.103703v102.083514h-54.475965c-9.427237 0-17.036365 7.676465-17.036365 17.103702v298.035379c0 9.427237 7.609127 17.036365 17.036365 17.036364z m17.103702-298.035378h102.083515v263.895311H364.968764V311.906885zM117.032419 712.093115h54.61064v93.666338c0 9.427237 7.609127 17.036365 17.036365 17.036365s17.103702-7.609127 17.103702-17.036365v-93.666338h47.472875c9.427237 0 17.103702-7.609127 17.103702-17.036365V397.021372c0-9.427237-7.676465-17.036365-17.103702-17.036365h-47.472875V277.834155c0-9.427237-7.676465-17.036365-17.103702-17.036365s-17.036365 7.609127-17.036365 17.036365v102.150852h-54.61064c-9.427237 0-17.103702 7.609127-17.103702 17.036365v298.035378c0 9.427237 7.676465 17.036365 17.103702 17.036365z m17.036365-297.968041h102.150852v263.827974H134.068784V414.125074z" fill="" p-id="3587"></path><path d="M1006.896298 989.859933H34.140067V17.103702C34.140067 7.609127 26.53094 0 17.036365 0 7.609127 0 0 7.609127 0 17.103702v989.792596c0 9.427237 7.609127 17.103702 17.036365 17.103702h989.859933c9.427237 0 17.103702-7.676465 17.103702-17.103702s-7.676465-17.036365-17.103702-17.036365z" fill="" p-id="3588"></path></svg>