<?xml version="1.0" standalone="no"?><!DOCTYPE svg PUBLIC "-//W3C//DTD SVG 1.1//EN" "http://www.w3.org/Graphics/SVG/1.1/DTD/svg11.dtd"><svg t="1529070603159" class="icon" style="" viewBox="0 0 1024 1024" version="1.1" xmlns="http://www.w3.org/2000/svg" p-id="13108" xmlns:xlink="http://www.w3.org/1999/xlink" width="200" height="200"><defs><style type="text/css"></style></defs><path d="M512 641.575385l-4.332308 3.938461A160.295385 160.295385 0 0 1 463.556923 787.692308l-64.984615 64.984615a160.295385 160.295385 0 0 1-226.855385-226.855385L236.307692 560.443077a160.295385 160.295385 0 0 1 141.784616-44.504615l3.938461-4.332308 33.476923-33.476923a206.375385 206.375385 0 0 0-211.88923 49.624615l-64.59077 65.378462a206.375385 206.375385 0 0 0 291.84 291.84l64.984616-64.984616a206.375385 206.375385 0 0 0 49.624615-211.88923z m372.972308-502.547693a206.375385 206.375385 0 0 0-291.84 0l-64.984616 64.984616a206.375385 206.375385 0 0 0-49.624615 211.88923l33.476923-33.476923 4.332308-3.938461A160.295385 160.295385 0 0 1 560.836923 236.307692l64.984615-64.984615a160.295385 160.295385 0 0 1 226.855385 226.855385L787.692308 463.556923a160.295385 160.295385 0 0 1-141.784616 44.504615l-3.938461 4.332308-33.476923 33.476923a206.375385 206.375385 0 0 0 211.88923-49.624615l64.984616-64.984616a206.375385 206.375385 0 0 0-0.393846-292.233846zM414.72 609.28a22.843077 22.843077 0 0 0 32.295385 0l162.264615-161.870769a22.843077 22.843077 0 0 0-32.295385-32.295385l-162.264615 162.264616a22.843077 22.843077 0 0 0 0 31.901538z" p-id="13109"></path></svg>