<?xml version="1.0" standalone="no"?><!DOCTYPE svg PUBLIC "-//W3C//DTD SVG 1.1//EN" "http://www.w3.org/Graphics/SVG/1.1/DTD/svg11.dtd"><svg t="1529069088124" class="icon" style="" viewBox="0 0 1026 1024" version="1.1" xmlns="http://www.w3.org/2000/svg" p-id="6990" xmlns:xlink="http://www.w3.org/1999/xlink" width="200.390625" height="200"><defs><style type="text/css"></style></defs><path d="M650.6059853515626 405.6155c10.7055-6.907500000000001 13.7835-21.1635 6.862500000000001-31.855500000000006-6.9165-10.7055-21.1635-13.774499999999998-31.850999999999996-6.867L486.0994853515625 456.9335l23.4225 39.753L650.6059853515626 405.6155z" p-id="6991"></path><path d="M952.3669853515623 320.615l-125.00100000000002-193.6575c-20.7135-32.093999999999994-63.49049999999999-41.3145-95.60249999999999-20.6055L499.3699853515625 256.3325c-32.0985 20.718-41.319 63.49049999999999-20.6055 95.589l25.002 38.727 38.722500000000004-24.997500000000002-24.997500000000002-38.7315c-6.903-10.696499999999999-3.825-24.961499999999997 6.8535-31.860000000000003l232.4115-149.96699999999998c10.6785-6.9165 24.997500000000002-3.8295000000000003 31.873500000000003 6.867l125.00999999999999 193.6485c6.8715 10.6875 3.8024999999999993 24.9525-6.876 31.860000000000003l-232.4115 150.012c-10.696499999999999 6.8445-24.970499999999998 3.7710000000000004-31.869-6.8715l-24.993-38.722500000000004-38.754000000000005 24.993 25.0245 38.736000000000004c20.718 32.0895 63.49049999999999 41.301 95.58449999999999 20.5965l232.4115-150.0075C963.8599853515626 395.4815 973.0804853515626 352.6955 952.3669853515623 320.615z" p-id="6992"></path><path d="M347.9764853515625 614.771c-8.019 9.8775-6.516 24.3945 3.3749999999999996 32.409 9.9135 8.023499999999999 24.389999999999997 6.5024999999999995 32.427-3.3749999999999996l104.6115-128.961-34.632000000000005-30.501000000000005L347.9764853515625 614.771z" p-id="6993"></path><path d="M527.9989853515626 612.386l-35.802-29.038500000000003-29.0295 35.8065 35.802 29.025000000000002c9.868500000000001 8.019 11.398499999999999 22.5315 3.3749999999999996 32.4135l-174.267 214.78500000000003c-7.9965 9.8865-22.5405 11.421-32.409 3.393l-179.019-145.188c-9.863999999999999-8.028-11.376-22.5405-3.3795-32.43600000000001l174.249-214.821c8.023499999999999-9.832500000000001 22.549500000000002-11.3625 32.4225-3.384l35.793 29.0295 29.061-35.7885-35.8245-29.0475c-29.664000000000005-24.048-73.1835-19.525499999999997-97.2495 10.147499999999999L77.46348535156255 692.1215c-24.0615 29.6685-19.5165 73.1925 10.134 97.2495l179.0325 145.20149999999998c29.659499999999998 24.057000000000002 73.1925 19.5165 97.25849999999998-10.134l174.23549999999997-214.803C562.1944853515625 679.9625000000001 557.6629853515625 636.443 527.9989853515626 612.386z" p-id="6994"></path><path d="M416.5385205078125 106.13164062500005l31.97021484375 10.117968750000001-49.623046875 111.52001953125-31.95-10.120605468750002L416.5385205078125 106.13164062500005zM114.73354003906252 369.44755859375005l142.17626953125-51.53466796875 12.27392578125 33.466113281249996L126.95473144531246 402.94619140624997 114.73354003906252 369.44755859375005zM233.37709472656252 148.09765625l27.23291015625-23.56083984375 40.31103515625 125.48759765624999-27.24609375 23.572265625L233.37709472656252 148.09765625z" p-id="6995"></path></svg>