<?xml version="1.0" standalone="no"?><!DOCTYPE svg PUBLIC "-//W3C//DTD SVG 1.1//EN" "http://www.w3.org/Graphics/SVG/1.1/DTD/svg11.dtd"><svg t="1529069118042" class="icon" style="" viewBox="0 0 1024 1024" version="1.1" xmlns="http://www.w3.org/2000/svg" p-id="7778" xmlns:xlink="http://www.w3.org/1999/xlink" width="200" height="200"><defs><style type="text/css"></style></defs><path d="M166.205091 348.267636a29.536 29.536 0 0 0 12.468364 0.154182 29.687273 29.687273 0 0 0 23.013818-22.458182c17.928727-78.600727 65.291636-135.386182 140.768-168.776727 57.221818-25.312 111.633455-27.435636 112.122182-27.453091 16.299636-0.433455 29.248-14.039273 28.864-30.338909-0.386909-15.944727-13.675636-28.916364-29.669819-28.916364l-0.689454 0.005819c-2.621091 0.066909-64.986182 2.024727-133.381818 31.965091-92.898909 40.689455-153.684364 113.419636-175.784728 210.327272a29.410909 29.410909 0 0 0 3.796364 22.356364 29.405091 29.405091 0 0 0 18.493091 13.134545zM948.075636 571.330909a29.402182 29.402182 0 0 0-11.383272-19.610182 29.597091 29.597091 0 0 0-28.357819-4.218182 29.678545 29.678545 0 0 0-18.996363 31.700364c10.722909 79.904-13.762909 149.672727-72.779637 207.374546-44.692364 43.697455-94.970182 64.779636-95.418181 64.962909-15.112727 6.114909-22.481455 23.392-16.416 38.519272 4.459636 11.109818 15.554909 18.577455 27.604363 18.577455h0.002909c3.514182 0 6.967273-0.622545 10.312728-1.873455l0.64-0.247272c2.432-0.983273 60.183273-24.666182 113.751272-76.634182 72.779636-70.626909 104.258909-160.034909 91.04-258.551273zM563.179636 414.193455H165.579636c-51.054545 0-92.587636 41.533091-92.587636 92.587636v240.136727c0 46.717091 34.871273 86.210909 81.12 91.872l0.779636 0.096c1.527273 0.171636 8.229818 0.590545 9.812364 0.599273 0.171636 0.005818 0.171636 0.005818 132.622545 0.008727l266.091637 0.011637 0.494545-0.017455a97.096727 97.096727 0 0 0 4.666182-0.148364l1.323636-0.098909c1.332364-0.093091 2.664727-0.209455 4.119273-0.375272l0.666182-0.087273c46.222545-5.649455 81.079273-45.143273 81.079273-91.860364v-240.136727c-0.002909-51.054545-41.536-92.587636-92.587637-92.587636z m27.976728 331.746909c0 15.688727-12.288 27.976727-27.973819 27.976727H165.579636c-15.688727 0-27.976727-12.285091-27.976727-27.930182l0.980364-239.208727c0-15.688727 12.288-27.976727 27.976727-27.976727h395.642182c15.688727 0 27.973818 12.296727 27.973818 28.026181l0.980364 239.112728zM486.074182 895.458909H242.682182c-17.774545 0-32.794182 14.568727-32.794182 31.813818 0 17.841455 14.405818 31.819636 32.794182 31.819637h243.389091c18.388364 0 32.791273-13.978182 32.791272-31.816728 0.002909-8.453818-3.485091-16.456727-9.824-22.536727a33.041455 33.041455 0 0 0-22.964363-9.28zM617.789091 326.321455l0.343273 0.040727c1.160727 0.133818 5.218909 0.299636 6.242909 0.398545 0.357818 0.011636 0.491636 0.014545 229.501091 0.020364h0.206545l0.215273-0.011636c1.044364-0.002909 2.097455-0.037818 3.293091-0.110546l0.785454-0.058182c0.875636-0.064 1.745455-0.136727 2.801455-0.256l0.372363-0.049454c30.917818-3.778909 54.237091-30.181818 54.237091-61.419637v-138.065454c-0.002909-34.132364-27.776-61.899636-61.908363-61.899637h-228.590546c-34.132364 0-61.902545 27.767273-61.902545 61.902546v138.065454c-0.005818 31.237818 23.354182 57.649455 54.402909 61.44291z m0.084364-61.946182l0.564363-137.565091c0-4.224 3.185455-7.409455 7.406546-7.409455h227.461818c4.224 0 7.409455 3.197091 7.409454 7.473455l0.570182 137.437091c0 4.221091-3.188364 7.406545-7.412363 7.406545h-228.590546c-4.224 0.002909-7.409455-3.170909-7.409454-7.342545zM837.079273 368.567273c0-14.618182-12.608-26.970182-27.531637-26.970182H669.614545c-14.923636 0-27.531636 12.352-27.531636 26.970182 0 15.121455 12.093091 26.964364 27.531636 26.964363h139.933091c15.438545 0 27.531636-11.842909 27.531637-26.964363z" fill="" p-id="7779"></path></svg>