<?xml version="1.0" standalone="no"?><!DOCTYPE svg PUBLIC "-//W3C//DTD SVG 1.1//EN" "http://www.w3.org/Graphics/SVG/1.1/DTD/svg11.dtd"><svg t="1536034635369" class="icon" style="" viewBox="0 0 1024 1024" version="1.1" xmlns="http://www.w3.org/2000/svg" p-id="2739" xmlns:xlink="http://www.w3.org/1999/xlink" width="200" height="200"><defs><style type="text/css"></style></defs><path d="M734.898091 604.305289 448.309934 604.305289c-17.5804 0-31.839149 13.707187-31.839149 30.606065 0 16.896832 14.258749 30.592762 31.839149 30.592762l286.588157 0c17.58654 0 31.845289-13.69593 31.845289-30.592762C766.74338 618.012476 752.484631 604.305289 734.898091 604.305289zM734.898091 451.266777 448.309934 451.266777c-17.5804 0-31.839149 13.706163-31.839149 30.615275 0 16.893762 14.258749 30.599925 31.839149 30.599925l286.588157 0c17.58654 0 31.845289-13.706163 31.845289-30.599925C766.74338 464.97294 752.484631 451.266777 734.898091 451.266777zM734.898091 22.798239c-3.947915 0-382.107651-0.962931-382.107651-0.962931-67.370387 0-126.940111 52.092425-126.940111 115.166973l-0.427742 7.373944-36.788881 0.841158c-67.384713 0-122.417097 58.639538-122.417097 121.704876l0 612.707656c0 63.066361 59.983139 122.532731 127.373992 122.532731l477.621005 0c67.36834 0 127.372969-51.571562 127.372969-114.644063l0-8.216125 31.844266 0.327458c67.363224 0 127.35455-59.470463 127.35455-122.540917L957.783391 267.647783 734.898091 22.798239zM735.180524 884.731096c0 31.200606-30.547737 56.170301-63.968917 56.170301L193.590602 940.901397c-33.444716 0-63.684438-30.060643-63.684438-61.270459L129.906164 266.922259c0-31.214932 27.241434-60.267619 60.660568-60.267619l34.855856-0.994654 0 551.429011c0 63.070454 59.997466 122.540917 127.368876 122.540917l382.390084-0.327458L735.181547 884.731096zM894.096906 757.090021c0 31.209816-30.260188 61.256132-63.669088 61.256132l-477.638401 0c-33.419134 0-63.679321-30.046317-63.679321-61.256132L289.110095 144.376225c0-31.208792 30.260188-61.256132 63.679321-61.256132l318.421166 0c-0.50449 70.552869 0 123.319653 0 123.319653 0 63.634296 59.542094 121.752971 127.372969 121.752971 0 0 33.82641 0 95.513354 0L894.096906 757.090021zM798.583552 267.647783c-33.930787 0-63.685461-59.991326-63.685461-91.820242 0 0 0-32.234145 0-91.774193L734.898091 84.006276 894.096906 267.647783 798.583552 267.647783z" p-id="2740"></path></svg>