<?xml version="1.0" standalone="no"?><!DOCTYPE svg PUBLIC "-//W3C//DTD SVG 1.1//EN" "http://www.w3.org/Graphics/SVG/1.1/DTD/svg11.dtd"><svg t="1531987824774" class="icon" style="" viewBox="0 0 1024 1024" version="1.1" xmlns="http://www.w3.org/2000/svg" p-id="2774" xmlns:xlink="http://www.w3.org/1999/xlink" width="200" height="200"><defs><style type="text/css"></style></defs><path d="M992 0H32a32 32 0 0 0-32 32v960a32 32 0 0 0 32 32h480v-64H64v-256h512v-64H64v-256h896v288h64V32a32 32 0 0 0-32-32z m-32 320H64V64h896z" p-id="2775"></path><path d="M128 160h192v64H128zM160 480h576v64H160zM800 480h64v64h-64zM160 800h64v64H160zM288 800h64v64H288zM416 800h64v64h-64zM384 160h64v64h-64zM512 160h64v64h-64zM640 160h64v64h-64zM768 160h64v64h-64zM736 914.88l-73.28-73.28-45.12 45.12 96 96a32 32 0 0 0 45.12 0l224-224-45.12-45.12z" p-id="2776"></path></svg>